<?xml version="1.0" encoding="UTF-8" standalone="no"?>
<!-- Generator: Adobe Illustrator 16.0.3, SVG Export Plug-In . SVG Version: 6.00 Build 0)  -->

<svg
   xmlns:dc="http://purl.org/dc/elements/1.1/"
   xmlns:cc="http://creativecommons.org/ns#"
   xmlns:rdf="http://www.w3.org/1999/02/22-rdf-syntax-ns#"
   xmlns:svg="http://www.w3.org/2000/svg"
   xmlns="http://www.w3.org/2000/svg"
   xmlns:sodipodi="http://sodipodi.sourceforge.net/DTD/sodipodi-0.dtd"
   xmlns:inkscape="http://www.inkscape.org/namespaces/inkscape"
   version="1.1"
   x="0px"
   y="0px"
   width="57.002998"
   height="65.158997"
   viewBox="0 0 57.002998 65.158997"
   enable-background="new 0 0 586 584"
   xml:space="preserve"
   id="svg12"
   sodipodi:docname="logo.svg"
   inkscape:version="0.92.3 (2405546, 2018-03-11)"><metadata
   id="metadata18"><rdf:RDF><cc:Work
       rdf:about=""><dc:format>image/svg+xml</dc:format><dc:type
         rdf:resource="http://purl.org/dc/dcmitype/StillImage" /></cc:Work></rdf:RDF></metadata><defs
   id="defs16" /><sodipodi:namedview
   pagecolor="#ffffff"
   bordercolor="#666666"
   borderopacity="1"
   objecttolerance="10"
   gridtolerance="10"
   guidetolerance="10"
   inkscape:pageopacity="0"
   inkscape:pageshadow="2"
   inkscape:window-width="1920"
   inkscape:window-height="1012"
   id="namedview14"
   showgrid="false"
   inkscape:zoom="0.40410959"
   inkscape:cx="266.304"
   inkscape:cy="271"
   inkscape:window-x="0"
   inkscape:window-y="0"
   inkscape:window-maximized="1"
   inkscape:current-layer="svg12" />

<g
   id="g3730"
   transform="matrix(0.10583373,0,0,0.12148982,-2.8253373,-3.239769)"><g
     id="Layer_2">
	<polygon
   id="polygon2"
   points="312.912,249.523 449.85,99.833 322.98,99.833 256.527,174.342 256.527,99.833 155.167,99.833 155.167,225.358 425.014,527.422 425.014,371.02 " />
	<polygon
   id="polygon4"
   points="155.167,247.173 155.167,287.113 256.526,399.885 256.526,358.938 " />
	<polygon
   id="polygon6"
   points="155.167,309.936 155.167,384.111 256.526,493.861 256.526,421.699 " />
</g><g
     id="Layer_3">
	<path
   id="path9"
   d="M 295.998,26.667 C 147.268,26.667 26.696,146.73 26.696,294.832 26.696,442.938 147.268,563 295.998,563 444.734,563 565.305,442.936 565.305,294.832 565.305,146.729 444.734,26.667 295.998,26.667 Z m 0.971,510.72 c -134.741,0 -243.973,-108.77 -243.973,-242.943 0,-134.171 109.232,-242.941 243.973,-242.941 134.744,0 243.973,108.77 243.973,242.941 0,134.171 -109.229,242.943 -243.973,242.943 z"
   inkscape:connector-curvature="0" />
</g></g>
</svg>